<?xml version="1.0" encoding="utf-8"?>
<!-- Generator: Adobe Illustrator 19.0.0, SVG Export Plug-In . SVG Version: 6.00 Build 0)  -->
<svg version="1.1" id="Layer_1" xmlns="http://www.w3.org/2000/svg" xmlns:xlink="http://www.w3.org/1999/xlink" x="0px" y="0px"
	 viewBox="0 0 200 200" enable-background="new 0 0 200 200" xml:space="preserve">
<metadata><?xpacket begin="﻿" id="W5M0MpCehiHzreSzNTczkc9d"?>
<x:xmpmeta xmlns:x="adobe:ns:meta/" x:xmptk="Adobe XMP Core 5.6-c067 79.157747, 2015/03/30-23:40:42        ">
   <rdf:RDF xmlns:rdf="http://www.w3.org/1999/02/22-rdf-syntax-ns#">
      <rdf:Description rdf:about=""/>
   </rdf:RDF>
</x:xmpmeta>
                                                                                                    
                                                                                                    
                                                                                                    
                                                                                                    
                                                                                                    
                                                                                                    
                                                                                                    
                                                                                                    
                                                                                                    
                                                                                                    
                                                                                                    
                                                                                                    
                                                                                                    
                                                                                                    
                                                                                                    
                                                                                                    
                                                                                                    
                                                                                                    
                                                                                                    
                                                                                                    
                           
<?xpacket end="w"?></metadata>
<g id="XMLID_1_">
	<g id="XMLID_239_">
		<circle id="XMLID_245_" fill="#C7505A" cx="100" cy="100" r="99"/>
	</g>
	<path id="XMLID_229_" fill="#F2F2F2" d="M99.7,111.3h0.7c0.9-5.6,2.5-12.9,4.7-21.9l7.8-31.1c3.1-0.6,7.2-0.9,12.3-0.9
		c5.1,0,9.1,0.3,12.1,0.9l6.5,83.3c-2.3,0.7-5.2,1-8.8,1c-3.6,0-6.5-0.2-8.8-0.6l-2-35.5c-0.7-11.3-1-20.5-1-27.8h-0.9l-12.7,50.9
		c-2.2,0.4-5.4,0.6-9.5,0.6c-4.1,0-7.4-0.2-9.7-0.6L77.8,78.6h-0.9c-0.2,10-0.5,19.2-1,27.8L74,142c-2.3,0.4-5.2,0.6-8.8,0.6
		c-3.6,0-6.6-0.3-8.9-1l6.5-83.3c3.1-0.6,7.2-0.9,12.3-0.9c5.1,0,9.2,0.3,12.2,0.9"/>
</g>
</svg>
