<?xml version="1.0" encoding="UTF-8"?>
<!-- Generator: Adobe Illustrator 18.0.0, SVG Export Plug-In . SVG Version: 6.00 Build 0)  -->
<!DOCTYPE svg PUBLIC "-//W3C//DTD SVG 1.1//EN" "http://www.w3.org/Graphics/SVG/1.1/DTD/svg11.dtd">
<svg version="1.1" id="Lag_1" xmlns="http://www.w3.org/2000/svg" xmlns:xlink="http://www.w3.org/1999/xlink" x="0px" y="0px" viewBox="0 0 321 83" enable-background="new 0 0 321 83" xml:space="preserve">
<rect y="0" fill="#C8505A" width="321" height="83"/>
<g>
	<path fill="#F4F4F4" d="M24.1,60.4L27,22.6c1.4-0.3,3.3-0.4,5.6-0.4c2.3,0,4.2,0.1,5.5,0.4l3.6,14.1c1,4.1,1.7,7.4,2.1,10h0.3   c0.4-2.5,1.1-5.8,2.1-10l3.6-14.1c1.4-0.3,3.3-0.4,5.6-0.4c2.3,0,4.1,0.1,5.5,0.4l2.9,37.8c-1,0.3-2.4,0.4-4,0.4   c-1.6,0-3-0.1-4-0.3l-0.9-16.1c-0.3-5.1-0.4-9.3-0.4-12.6h-0.4l-5.8,23.1c-1,0.2-2.4,0.3-4.3,0.3c-1.9,0-3.3-0.1-4.4-0.3l-5.7-23.1   h-0.4c-0.1,4.5-0.2,8.7-0.4,12.6l-0.9,16.1c-1,0.2-2.4,0.3-4,0.3C26.5,60.8,25.1,60.7,24.1,60.4z"/>
	<path fill="#F4F4F4" d="M73.4,57.8c-4-3.3-6-8.7-6-16.3c0-7.6,2-13,6-16.3c2.9-2.3,6.3-3.5,10.5-3.5c4.1,0,7.6,1.2,10.5,3.5   c4,3.3,6,8.7,6,16.3c0,7.6-2,13-6,16.3c-2.9,2.3-6.3,3.5-10.5,3.5C79.7,61.3,76.2,60.2,73.4,57.8z M83.8,28.2   c-5,0-7.5,4.4-7.5,13.3c0,8.8,2.5,13.3,7.5,13.3c5,0,7.5-4.4,7.5-13.3C91.4,32.7,88.8,28.2,83.8,28.2z"/>
	<path fill="#F4F4F4" d="M134.4,31.9c0.9,2.7,1.3,5.9,1.3,9.6c0,3.7-0.4,6.9-1.3,9.7c-0.9,2.7-2.5,5-5,6.9c-1.2,0.9-2.7,1.6-4.6,2.1   c-1.9,0.5-4,0.7-6.2,0.7c-2.2,0-6.6-0.1-13-0.2l-0.4-0.4V22.8l0.4-0.4c4.3-0.1,8.8-0.2,13.7-0.2c1.7,0,3.6,0.2,5.5,0.7   c1.9,0.5,3.5,1.2,4.6,2.1C131.9,26.9,133.5,29.2,134.4,31.9z M115,54.2l4.3,0.1c5.1,0,7.6-4.2,7.6-12.7c0-8.5-2.5-12.7-7.6-12.7   l-5.7-0.1v25.4C113.7,54.2,114.2,54.2,115,54.2z"/>
	<path fill="#F4F4F4" d="M170.3,58.4c-1.2,1.7-3,2.6-5.6,2.6c-1.5,0-2.6-0.4-3.3-1.1c-0.7-0.7-1.3-2-1.9-3.7l-2.2-6.7   c-0.6-1.8-1.3-3.1-2.1-3.9c-0.8-0.8-1.9-1.1-3.3-1.1c-0.4,0-1.3,0-2.6,0.1v16c-1.1,0.2-2.5,0.3-4.3,0.3c-1.7,0-3.2-0.1-4.2-0.3v-38   c1.1-0.2,2.5-0.3,4.2-0.3c1.7,0,3.2,0.1,4.3,0.3v14.9l1.6-0.1c0.7,0,1.1-0.1,1.4-0.4c0.3-0.2,0.6-0.7,1.1-1.5l5.5-10.3   c0.6-1.1,1.1-1.8,1.8-2.3c0.6-0.4,1.7-0.7,3.2-0.7c1.5,0,3.1,0.1,4.5,0.2l0.4,0.6l-7,13c-0.9,1.6-1.9,2.9-3,3.9   c1.7,0.4,3,1.1,3.9,2.1c0.9,1,1.7,2.4,2.3,4.2l2.3,7.1c0,0.1,0.1,0.3,0.3,0.8c0.1,0.4,0.3,0.7,0.3,0.8c0.1,0.1,0.1,0.3,0.3,0.7   c0.1,0.4,0.3,0.6,0.4,0.8c0.1,0.1,0.3,0.4,0.4,0.6c0.2,0.3,0.4,0.5,0.6,0.7L170.3,58.4z"/>
	<path fill="#F4F4F4" d="M201.6,34.2c0,2.5-0.7,4.6-2,6.5c-1.4,1.8-2.9,3.1-4.8,3.7c1.9,0.7,3.3,2.4,4.2,5.1l1.8,5   c0.6,1.8,1.5,3.1,2.7,4.1c-0.6,0.7-1.4,1.4-2.4,1.8c-1,0.5-2.2,0.7-3.5,0.7c-1.3,0-2.3-0.4-3-1.1c-0.7-0.7-1.4-2-2-3.8l-2.1-6.1   c-0.4-1.1-0.9-2-1.6-2.7c-0.7-0.6-1.8-0.9-3.2-0.9H183v14.1c-1.1,0.2-2.5,0.3-4.2,0.3c-1.7,0-3.1-0.1-4.2-0.3V22.8l0.4-0.4   c6.2-0.1,10.6-0.2,13.1-0.2c4,0,7.3,1,9.7,3C200.3,27.2,201.6,30.2,201.6,34.2z M183,28.6v11.3c2.4-0.1,3.9-0.1,4.5-0.1   c3.6,0,5.4-1.9,5.4-5.6c0-3.7-1.8-5.6-5.4-5.6C185.6,28.6,184.1,28.6,183,28.6z"/>
	<path fill="#F4F4F4" d="M218.7,52.4c-1,0-1.8,0-2.3-0.1l-2.4,8.2c-0.9,0.2-2.1,0.3-3.7,0.3c-1.6,0-2.9-0.2-4-0.6l-0.3-0.4   l12.4-37.3c1.3-0.2,3-0.3,5-0.3c2,0,3.6,0.1,4.8,0.4l12,37.4c-1.2,0.7-2.7,1.1-4.4,1.1c-1.7,0-2.9-0.3-3.7-1   c-0.7-0.6-1.4-1.9-1.8-3.6l-1.2-4.1c-0.5,0-1.3,0.1-2.4,0.1H218.7z M218.3,45.7l2.3-0.1h4.3c0.2,0,0.5,0,1,0c0.5,0,0.9,0,1.1,0   l-4.2-15.4h-0.3c-0.3,1.8-1.2,5.2-2.7,10.2L218.3,45.7z"/>
	<path fill="#F4F4F4" d="M252.1,60.5c-1.1,0.2-2.6,0.3-4.3,0.3c-1.7,0-3.1-0.1-4.3-0.3V22.8l0.4-0.3h23.5c0.3,0.9,0.4,2,0.4,3.3   c0,2.6-1.5,3.9-4.6,3.9h-11.3c0,1,0.1,2.6,0.1,4.6v3.7h12.1c0.3,0.9,0.4,2,0.4,3.5c0,1.4-0.1,2.6-0.4,3.5h-12.1V60.5z"/>
	<path fill="#F4F4F4" d="M288.8,29.5l0.1,4.1v26.9c-1.1,0.2-2.6,0.3-4.3,0.3c-1.7,0-3.1-0.1-4.3-0.3V33.6l0.1-4.1h-0.1l-3.5,0.1H271   c-0.2-1.1-0.3-2.3-0.3-3.5c0-1.3,0.1-2.5,0.3-3.5h27.3c0.3,1,0.4,2.1,0.4,3.4c0,1.3-0.4,2.2-1.1,2.8c-0.7,0.6-1.8,0.9-3.4,0.9h-1.9   L288.8,29.5L288.8,29.5z"/>
</g>
</svg>