<?xml version="1.0" encoding="utf-8"?>
<!-- Generator: Adobe Illustrator 19.0.0, SVG Export Plug-In . SVG Version: 6.00 Build 0)  -->
<svg version="1.1" id="Lag_1" xmlns="http://www.w3.org/2000/svg" xmlns:xlink="http://www.w3.org/1999/xlink" x="0px" y="0px"
	 viewBox="0 0 282.3 45.7" enable-background="new 0 0 282.3 45.7" xml:space="preserve">
<metadata><?xpacket begin="﻿" id="W5M0MpCehiHzreSzNTczkc9d"?>
<x:xmpmeta xmlns:x="adobe:ns:meta/" x:xmptk="Adobe XMP Core 5.6-c067 79.157747, 2015/03/30-23:40:42        ">
   <rdf:RDF xmlns:rdf="http://www.w3.org/1999/02/22-rdf-syntax-ns#">
      <rdf:Description rdf:about=""/>
   </rdf:RDF>
</x:xmpmeta>
                                                                                                    
                                                                                                    
                                                                                                    
                                                                                                    
                                                                                                    
                                                                                                    
                                                                                                    
                                                                                                    
                                                                                                    
                                                                                                    
                                                                                                    
                                                                                                    
                                                                                                    
                                                                                                    
                                                                                                    
                                                                                                    
                                                                                                    
                                                                                                    
                                                                                                    
                                                                                                    
                           
<?xpacket end="w"?></metadata>
<g>
	<path fill="#1D1D1B" d="M3.7,41.7L6.7,3.9c1.4-0.3,3.3-0.4,5.6-0.4c2.3,0,4.2,0.1,5.5,0.4L21.4,18c1,4.1,1.7,7.4,2.1,10h0.3
		c0.4-2.5,1.1-5.8,2.1-10l3.6-14.1c1.4-0.3,3.3-0.4,5.6-0.4c2.3,0,4.1,0.1,5.5,0.4l2.9,37.8c-1,0.3-2.4,0.4-4,0.4
		c-1.6,0-3-0.1-4-0.3l-0.9-16.1c-0.3-5.1-0.4-9.3-0.4-12.6h-0.4L28,36.2c-1,0.2-2.4,0.3-4.3,0.3c-1.9,0-3.3-0.1-4.4-0.3l-5.7-23.1
		h-0.4c-0.1,4.5-0.2,8.7-0.4,12.6l-0.9,16.1c-1,0.2-2.4,0.3-4,0.3C6.2,42.2,4.8,42,3.7,41.7z"/>
	<path fill="#1D1D1B" d="M53.1,39.2c-4-3.3-6-8.7-6-16.3c0-7.6,2-13,6-16.3C55.9,4.2,59.4,3,63.5,3c4.1,0,7.6,1.2,10.5,3.5
		c4,3.3,6,8.7,6,16.3c0,7.6-2,13-6,16.3c-2.9,2.3-6.3,3.5-10.5,3.5C59.4,42.7,55.9,41.5,53.1,39.2z M63.5,9.6c-5,0-7.5,4.4-7.5,13.3
		c0,8.8,2.5,13.3,7.5,13.3c5,0,7.5-4.4,7.5-13.3C71,14,68.5,9.6,63.5,9.6z"/>
	<path fill="#1D1D1B" d="M114.1,13.2c0.9,2.7,1.3,5.9,1.3,9.6c0,3.7-0.4,6.9-1.3,9.7c-0.9,2.7-2.5,5-5,6.9c-1.2,0.9-2.7,1.6-4.6,2.1
		c-1.9,0.5-4,0.7-6.2,0.7c-2.2,0-6.6-0.1-13-0.2l-0.4-0.4V4.1l0.4-0.4c4.3-0.1,8.8-0.2,13.7-0.2c1.7,0,3.6,0.2,5.5,0.7
		c1.9,0.5,3.5,1.2,4.6,2.1C111.6,8.2,113.2,10.5,114.1,13.2z M94.7,35.5l4.3,0.1c5.1,0,7.6-4.2,7.6-12.7c0-8.5-2.5-12.7-7.6-12.7
		l-5.7-0.1v25.4C93.4,35.5,93.8,35.5,94.7,35.5z"/>
	<path fill="#1D1D1B" d="M150,39.7c-1.2,1.7-3,2.6-5.6,2.6c-1.5,0-2.6-0.4-3.3-1.1c-0.7-0.7-1.3-2-1.9-3.7l-2.2-6.7
		c-0.6-1.8-1.3-3.1-2.1-3.9c-0.8-0.8-1.9-1.1-3.3-1.1c-0.4,0-1.3,0-2.6,0.1v16c-1.1,0.2-2.5,0.3-4.3,0.3c-1.7,0-3.2-0.1-4.2-0.3v-38
		c1.1-0.2,2.5-0.3,4.2-0.3c1.7,0,3.2,0.1,4.3,0.3v14.9l1.6-0.1c0.7,0,1.1-0.1,1.4-0.4c0.3-0.2,0.6-0.7,1.1-1.5l5.5-10.3
		c0.6-1.1,1.1-1.8,1.8-2.3c0.6-0.4,1.7-0.7,3.2-0.7c1.5,0,3.1,0.1,4.5,0.2l0.4,0.6l-7,13c-0.9,1.6-1.9,2.9-3,3.9
		c1.7,0.4,3,1.1,3.9,2.1c0.9,1,1.7,2.4,2.3,4.2l2.3,7.1c0,0.1,0.1,0.3,0.3,0.8c0.1,0.4,0.3,0.7,0.3,0.8c0.1,0.1,0.1,0.3,0.3,0.7
		c0.1,0.4,0.3,0.6,0.4,0.8c0.1,0.1,0.3,0.4,0.4,0.6c0.2,0.3,0.4,0.5,0.6,0.7L150,39.7z"/>
	<path fill="#1D1D1B" d="M181.2,15.5c0,2.5-0.7,4.6-2,6.5c-1.4,1.8-2.9,3.1-4.8,3.7c1.9,0.7,3.3,2.4,4.2,5.1l1.8,5
		c0.6,1.8,1.5,3.1,2.7,4.1c-0.6,0.7-1.4,1.4-2.4,1.8c-1,0.5-2.2,0.7-3.5,0.7c-1.3,0-2.3-0.4-3-1.1c-0.7-0.7-1.4-2-2-3.8l-2.1-6.1
		c-0.4-1.1-0.9-2-1.6-2.7c-0.7-0.6-1.8-0.9-3.2-0.9h-2.6v14.1c-1.1,0.2-2.5,0.3-4.2,0.3s-3.1-0.1-4.2-0.3V4.1l0.4-0.4
		c6.2-0.1,10.6-0.2,13.1-0.2c4,0,7.3,1,9.7,3C180,8.6,181.2,11.5,181.2,15.5z M162.7,9.9v11.3c2.4-0.1,3.9-0.1,4.5-0.1
		c3.6,0,5.4-1.9,5.4-5.6c0-3.7-1.8-5.6-5.4-5.6C165.3,10,163.8,9.9,162.7,9.9z"/>
	<path fill="#1D1D1B" d="M198.4,33.7c-1,0-1.8,0-2.3-0.1l-2.4,8.2c-0.9,0.2-2.1,0.3-3.7,0.3c-1.6,0-2.9-0.2-4-0.6l-0.3-0.4
		l12.4-37.3c1.3-0.2,3-0.3,5-0.3c2,0,3.6,0.1,4.8,0.4l12,37.4c-1.2,0.7-2.7,1.1-4.4,1.1c-1.7,0-2.9-0.3-3.7-1
		c-0.7-0.6-1.4-1.9-1.8-3.6l-1.2-4.1c-0.5,0-1.3,0.1-2.4,0.1H198.4z M198,27l2.3-0.1h4.3c0.2,0,0.5,0,1,0c0.5,0,0.9,0,1.1,0
		l-4.2-15.4h-0.3c-0.3,1.8-1.2,5.2-2.7,10.2L198,27z"/>
	<path fill="#1D1D1B" d="M231.8,41.8c-1.1,0.2-2.6,0.3-4.3,0.3c-1.7,0-3.1-0.1-4.3-0.3V4.2l0.4-0.3h23.5c0.3,0.9,0.4,2,0.4,3.3
		c0,2.6-1.5,3.9-4.6,3.9h-11.3c0,1,0.1,2.6,0.1,4.6v3.7h12.1c0.3,0.9,0.4,2,0.4,3.5c0,1.4-0.1,2.6-0.4,3.5h-12.1V41.8z"/>
	<path fill="#1D1D1B" d="M268.5,10.8l0.1,4.1v26.9c-1.1,0.2-2.6,0.3-4.3,0.3c-1.7,0-3.1-0.1-4.3-0.3V15l0.1-4.1h-0.1l-3.5,0.1h-5.9
		c-0.2-1.1-0.3-2.3-0.3-3.5c0-1.3,0.1-2.5,0.3-3.5H278c0.3,1,0.4,2.1,0.4,3.4c0,1.3-0.4,2.2-1.1,2.8c-0.7,0.6-1.8,0.9-3.4,0.9H272
		L268.5,10.8L268.5,10.8z"/>
</g>
</svg>
