<?xml version="1.0" encoding="utf-8"?>
<!-- Generator: Adobe Illustrator 19.0.0, SVG Export Plug-In . SVG Version: 6.00 Build 0)  -->
<svg version="1.1" id="Layer_1" xmlns="http://www.w3.org/2000/svg" xmlns:xlink="http://www.w3.org/1999/xlink" x="0px" y="0px"
	 viewBox="0 0 240 60" style="enable-background:new 0 0 240 60;" xml:space="preserve">
<style type="text/css">
	.st0{fill:#333333;}
</style>
<g id="XMLID_2_">
	<path id="XMLID_5_" class="st0" d="M44.4,22.2c0,1.6-1.1,9.3-3.3,23.2H30.6c2.1-13,3.1-19.7,3.1-20.1c0-1.3-0.6-1.9-1.8-1.9
		c-1.5,0-2.3,0.9-2.6,2.7l-3.1,19.2H15.8c2.1-13,3.1-19.7,3.1-20.1c0-1.3-0.6-1.9-1.8-1.9c-1.5,0-2.3,0.9-2.6,2.7l-3.1,19.2H1
		l4.9-30.7h5.5l4.9,6.6h0.1c0.8-4.8,3-7.1,6.6-7.1c4.2,0,6.5,2.3,6.7,6.8c1.9-4.5,4.6-6.8,8.1-6.8C42.2,14.1,44.4,16.8,44.4,22.2z"
		/>
	<path id="XMLID_7_" class="st0" d="M63,14.2c3.5,0,6.3,0.9,8.4,2.8c2,1.9,3.1,4.3,3.1,7.3c0,0.9-0.4,3.9-1.3,9
		C71.9,41.8,66.8,46,58,46c-3.5,0-6.3-1-8.4-2.9c-2-1.9-3.1-4.3-3.1-7.3c0-0.9,0.4-3.9,1.3-9C49.2,18.3,54.3,14.1,63,14.2L63,14.2z
		 M58.4,26.8c-0.8,4.8-1.2,7.4-1.2,7.9c0,1.6,0.7,2.5,2.3,2.5c1.8,0,2.9-1.3,3.3-3.8c0.8-4.8,1.2-7.4,1.2-7.9c0-1.6-0.7-2.5-2.3-2.5
		C59.9,23,58.8,24.2,58.4,26.8z"/>
	<path id="XMLID_10_" class="st0" d="M103.1,33.4c-0.1,0.5-0.1,0.9-0.1,1.3c0,0.4,0.2,0.7,0.5,1s1,0.4,1.8,0.4l-1.5,9.3
		c-6.2,0-9.8-1.6-11-4.9c-3,3.7-6.3,5.5-9.9,5.5c-4.4,0-6.6-2.7-6.6-8.1c0-1.6,0.5-5.4,1.4-11.2c1.3-8.1,6.3-12.1,15-12.1h2.7
		l2.1-13.2h10.4L103.1,33.4z M91.5,23.6c-1.8,0-2.9,1.1-3.2,3.3c-0.8,4.6-1.2,7.1-1.2,7.5c0,1.6,0.8,2.4,2.3,2.4
		c0.5,0,1-0.1,1.5-0.1c0.5-0.1,0.9-0.1,1.1-0.2l0.3-0.1l2-12.8L91.5,23.6z"/>
	<path id="XMLID_13_" class="st0" d="M130.9,33c0.7,2.5,2.4,3.7,5.1,3.7l-1.4,8.8c-4,0-7-0.9-9-2.5c-2-1.6-3.3-4.3-3.8-8h-2.6
		l-1.6,10.4h-10.4l7-43.9h10.4l-3.9,24.7h3.3c1.7,0,2.6-0.9,2.6-2.5c0-0.9-0.5-1.3-1.4-1.3l1.2-7.7c3.5,0,6.2,0.7,8,2.1
		s2.7,3.4,2.7,5.9c0,2.1-0.5,4.1-1.6,5.9c-1.1,1.8-2.6,3.2-4.5,4.4V33z"/>
	<path id="XMLID_15_" class="st0" d="M154.4,23.9c-1,0-1.7,0.3-2.3,1s-0.9,1.5-1.1,2.4c-0.7,4.3-1,6.6-1,6.8c0,0.7,0.2,1.2,0.5,1.5
		c0.4,0.3,1,0.5,2,0.5l-1.5,9.3c-3.8,0-6.7-0.7-8.7-2.3s-2.9-3.6-2.9-6.3c0-0.7,1.1-8.1,3.3-22.1h5.5l5.5,6.6h0.1
		c0.7-4.4,3.1-6.6,7.1-6.6h2.2l-1.5,9.3L154.4,23.9z"/>
	<path id="XMLID_17_" class="st0" d="M173.9,14.2c1.6,0,2.9,0.5,3.8,1.5c0.9,1,1.3,2,1.2,3.1c-0.1,1-0.1,1.9-0.2,2.6h0.1l7.6-6.6
		h5.5l-3,18.7c-0.1,0.5-0.1,0.9-0.1,1.3c0,0.4,0.2,0.7,0.5,1c0.4,0.2,1,0.4,1.8,0.4l-1.5,9.3c-6.2,0-9.8-1.6-11-4.9
		c-3,3.7-6.3,5.5-9.9,5.5c-4.4,0-6.6-2.7-6.6-8.1c0-1.6,0.5-5.4,1.4-11.2c1.3-8.4,4.8-12.6,10.2-12.6L173.9,14.2z M177.3,23.6
		c-1.8,0-2.9,1.1-3.2,3.3c-0.8,4.6-1.2,7.1-1.2,7.5c0,1.6,0.8,2.4,2.3,2.4c0.5,0,1-0.1,1.5-0.1c0.5-0.1,0.9-0.1,1.1-0.2l0.3-0.1
		c1-6.6,1.6-10.1,1.6-10.4C179.7,24.4,178.9,23.6,177.3,23.6L177.3,23.6z"/>
	<path id="XMLID_20_" class="st0" d="M211.8,9.8c-0.9,0-1.5,0.3-2,0.9S209,12,209,13l0.2,1.8h11.1l-1.3,8.8h-9.9l-3.7,23.1
		c-1.3,8.1-6.3,12.1-15,12.1l1.5-9.3c1.8,0,2.8-0.9,3.1-2.7l3.7-23.1h-4.4l1.3-8.8h4.4c-0.7-0.9-1-2.1-1-3.8c0-2.6,1.2-4.9,3.5-6.7
		s5.9-2.7,10.6-2.7h6l-1.3,8.2L211.8,9.8z"/>
	<path id="XMLID_22_" class="st0" d="M229.4,23.4c-1.1,6.7-1.6,10.2-1.6,10.7c0,1.3,0.8,2,2.4,2h4.4l-1.5,9.3h-4.4
		c-3.8,0-6.7-0.7-8.6-2.3c-1.9-1.5-2.9-3.6-2.9-6.3c0-0.9,0.7-5.4,2-13.4h-3.4l1.3-8.8h3.4l1-6.6h10.4l-1,6.6h7.1l-1.3,8.8H229.4z"
		/>
</g>
</svg>
